# xmcd
#
# Track frame offsets: 
#        150
#        21102
#        41960
#        58693
#        76626
#        98340
#        121217
#        138801
#        157430
#        174437
#        197353
#        220166
#        235959
#        256442
#        273427
#        297718
#        315457
#        333539
#
# Disc length: 4654 seconds
#
# Revision: 3
# Processed by: cddbd v1.5.2PL0 Copyright (c) Steve Scherf et al.
# Submitted via: ExactAudioCopy v1.0b3
#
DISCID=02122c12
DTITLE=????? - ??????
DYEAR=2007
DGENRE=???
TTITLE0=???? ?????????
TTITLE1=???
TTITLE2=????
TTITLE3=?????!!
TTITLE4=???????
TTITLE5=??????!
TTITLE6=??????
TTITLE7=??? ??? ??????
TTITLE8=?????? (?????????????)
TTITLE9=????!
TTITLE10=????
TTITLE11=????
TTITLE12=??????
TTITLE13=???????
TTITLE14=????
TTITLE15=???
TTITLE16=???????
TTITLE17=??
EXTD=
EXTT0=
EXTT1=
EXTT2=
EXTT3=
EXTT4=
EXTT5=
EXTT6=
EXTT7=
EXTT8=
EXTT9=
EXTT10=
EXTT11=
EXTT12=
EXTT13=
EXTT14=
EXTT15=
EXTT16=
EXTT17=
PLAYORDER=
